<?xml version="1.0" standalone="no"?>
<!DOCTYPE svg PUBLIC "-//W3C//DTD SVG 20010904//EN"
 "http://www.w3.org/TR/2001/REC-SVG-20010904/DTD/svg10.dtd">
<svg version="1.0" xmlns="http://www.w3.org/2000/svg"
 width="852.000000pt" height="400.000000pt" viewBox="0 0 852.000000 400.000000"
 preserveAspectRatio="xMidYMid meet">
<metadata>
Created by potrace 1.16, written by Peter Selinger 2001-2019
</metadata>
<g transform="translate(0.000000,400.000000) scale(0.100000,-0.100000)"
fill="#000000" stroke="none">
<path d="M5930 3970 c0 -28 -2 -30 -40 -30 -68 0 -240 -38 -370 -82 -81 -27
-216 -88 -385 -173 -222 -112 -295 -155 -500 -295 -143 -98 -252 -165 -270
-167 -90 -12 -341 -66 -401 -87 -159 -54 -380 -185 -539 -318 -111 -93 -220
-207 -393 -408 -140 -163 -209 -269 -389 -595 l-88 -160 -1278 -3 -1277 -2 0
-65 0 -65 363 -2 362 -3 3 -56 3 -56 -83 -27 c-255 -84 -420 -265 -472 -519
-13 -63 -14 -91 -6 -137 47 -261 226 -483 475 -590 63 -27 221 -70 258 -70 23
0 27 -4 27 -30 l0 -30 85 0 85 0 0 30 c0 27 3 30 30 30 52 0 221 41 300 72
405 160 772 570 1176 1315 l39 73 433 0 432 0 0 -47 c0 -27 -25 -133 -61 -257
-83 -287 -125 -472 -149 -655 -11 -85 -18 -156 -16 -158 6 -6 107 122 150 190
39 60 115 219 136 281 11 35 12 36 65 36 31 0 78 -10 116 -24 35 -13 111 -32
168 -41 86 -15 117 -16 180 -7 336 48 554 276 744 777 50 133 319 998 488
1572 109 370 110 372 174 475 133 212 180 238 436 245 128 4 168 2 215 -12 85
-25 144 -57 207 -115 74 -67 125 -146 161 -250 28 -81 30 -93 30 -250 1 -249
-28 -325 -172 -451 -111 -98 -138 -109 -253 -109 -67 0 -112 5 -150 19 -102
35 -238 62 -277 55 -60 -10 -166 -42 -224 -68 l-53 -24 50 -22 c28 -12 85 -31
129 -42 77 -20 81 -20 190 -2 61 9 159 19 219 22 l107 4 0 -56 c0 -53 -4 -62
-65 -151 -243 -350 -390 -878 -369 -1322 l7 -143 -55 0 c-61 0 -189 30 -239
55 -86 45 -151 139 -185 269 -19 72 -18 282 2 360 39 154 158 329 360 533
l121 122 -79 -50 c-249 -154 -426 -348 -507 -557 -66 -169 -77 -291 -37 -419
77 -241 297 -397 619 -438 33 -4 47 -11 47 -22 0 -30 78 -210 122 -281 44 -73
167 -230 180 -231 5 -1 36 -23 70 -51 64 -51 173 -113 268 -150 167 -66 370
-86 530 -52 416 89 749 344 1001 765 60 101 219 415 219 433 0 8 -121 47 -126
41 0 -1 -32 -60 -69 -132 -265 -507 -465 -750 -722 -879 -135 -67 -204 -81
-408 -81 -201 0 -283 16 -397 77 -181 96 -348 355 -348 539 l0 57 88 26 c335
103 577 332 683 646 61 183 68 354 20 492 -53 154 -167 315 -304 428 -66 55
-66 55 -66 108 -1 49 3 59 54 127 90 122 256 251 405 315 104 44 189 61 335
67 179 7 295 -15 423 -79 120 -59 236 -172 287 -280 46 -96 72 -225 81 -394
l7 -132 104 -7 c57 -4 107 -4 111 -1 4 4 10 118 13 254 8 272 9 279 98 552 23
69 41 130 41 136 0 7 -21 19 -47 28 -55 19 -63 20 -63 5 0 -7 -18 -70 -40
-140 l-41 -129 -50 0 c-45 0 -65 9 -177 74 -223 129 -322 171 -512 216 -167
40 -346 25 -554 -46 -43 -14 -94 -24 -130 -24 l-59 0 7 123 c6 96 4 138 -8
190 -49 209 -199 356 -446 436 -76 25 -224 51 -286 51 -42 0 -44 1 -44 30 0
27 -3 30 -30 30 -27 0 -30 -3 -30 -30z m-630 -396 c0 -52 -8 -70 -104 -253
-58 -108 -125 -239 -150 -291 -49 -104 -128 -333 -183 -530 -39 -143 -78 -292
-209 -798 -59 -229 -96 -338 -149 -449 -79 -163 -188 -266 -330 -313 -59 -20
-82 -21 -238 -18 -167 3 -173 4 -219 31 -48 28 -48 28 -48 82 0 40 18 108 66
257 37 112 68 209 70 216 3 9 51 12 199 12 l195 0 0 65 0 65 -170 0 -170 0 0
54 c0 65 162 731 253 1043 41 138 150 303 241 364 50 34 148 67 248 83 35 6
36 9 43 55 6 45 14 56 83 124 153 148 368 254 520 256 l52 1 0 -56z m-1280
-613 c0 -38 -8 -77 -21 -108 -75 -174 -235 -619 -346 -960 l-78 -243 -402 0
-403 0 0 52 c0 44 9 69 66 177 92 174 228 413 280 491 129 195 471 490 703
606 70 35 97 43 144 43 l57 1 0 -59z m2486 -533 c46 -59 102 -165 130 -248 16
-48 19 -85 19 -280 0 -208 -2 -231 -23 -300 -56 -179 -163 -349 -278 -443 -33
-26 -93 -65 -136 -87 -64 -34 -86 -40 -136 -40 l-59 0 -7 91 c-13 174 15 469
64 674 50 209 134 433 223 598 l48 87 57 0 c57 0 57 0 98 -52z m-4076 -956 c0
-43 -13 -73 -99 -234 -201 -377 -297 -514 -501 -719 -154 -154 -246 -220 -364
-260 -150 -50 -235 -62 -431 -62 -164 0 -189 2 -278 26 -210 57 -365 167 -429
304 -30 62 -33 78 -36 191 -5 150 8 224 55 315 93 177 296 267 578 254 162 -7
250 -32 403 -113 68 -36 125 -64 126 -62 1 2 19 26 39 54 l37 51 -68 31 c-94
43 -331 138 -364 146 -26 6 -28 10 -28 60 0 29 3 56 7 59 3 4 309 7 680 7
l673 0 0 -48z"/>
<path d="M2750 185 l0 -55 1595 0 1595 0 0 55 0 55 -1595 0 -1595 0 0 -55z"/>
</g>
</svg>
